<svg width="40" height="42" viewBox="0 0 40 42" fill="none" xmlns="http://www.w3.org/2000/svg">
<path d="M0.610396 16.1921C3.26245 5.46093 14.0934 -1.07503 24.813 1.57988C35.5325 4.2348 42.0614 15.0774 39.4094 25.8085C36.7573 36.5295 25.9264 43.0756 15.2068 40.4207C4.48728 37.7658 -2.04166 26.9131 0.610396 16.1921Z" fill="#F6F6F6"/>
<path d="M38.4883 13.3851H23.0113V16.4454H39.4803C39.2273 15.4017 38.8932 14.3782 38.4883 13.3851ZM34.5406 7.26465H23.0113V10.335H36.9093C36.2209 9.23051 35.4314 8.20705 34.5406 7.26465ZM5.57044 34.8373H34.4394C35.3302 33.905 36.1399 32.8816 36.8485 31.777H3.17145C3.86989 32.8714 4.66955 33.8949 5.57044 34.8373ZM24.8029 1.57988C24.2057 1.42789 23.5984 1.31642 23.0012 1.22522V4.2044H30.8561C29.0543 3.02894 27.0197 2.12708 24.8029 1.57988ZM39.9358 19.5158H23.0012V22.5862H39.9257C40.0168 21.5526 40.0168 20.5291 39.9358 19.5158ZM1.562 28.7066H38.4478C38.8325 27.7744 39.1564 26.8117 39.3994 25.7984C39.4095 25.7477 39.4196 25.6971 39.4398 25.6363H0.570007C0.812944 26.7003 1.15711 27.7237 1.562 28.7066ZM15.2069 40.4207C16.3913 40.7146 17.5756 40.897 18.7498 40.9679H21.2905C24.6713 40.7551 27.9004 39.6708 30.6941 37.8975H9.3056C11.077 39.0223 13.061 39.8836 15.2069 40.4207Z" fill="#E52A18"/>
<path d="M21.4929 21.4613L21.0576 21.1472L20.6224 21.4613L20.7843 20.9547L20.349 20.6406H20.8855L21.0475 20.1339L21.2094 20.6406H21.7459L21.3107 20.9547L21.4929 21.4613ZM19.3672 5.33931L19.5291 5.84598L19.0939 5.53184L18.6586 5.84598L18.8206 5.33931L18.3853 5.02518H18.9218L19.0837 4.51852L19.2457 5.02518H19.7822L19.3672 5.33931ZM19.3672 9.93982L19.5291 10.4465L19.0939 10.1324L18.6586 10.4465L18.8206 9.93982L18.3853 9.62569H18.9218L19.0837 9.11902L19.2457 9.62569H19.7822L19.3672 9.93982ZM19.3267 14.4593L19.4886 14.9659L19.0534 14.6518L18.6181 14.9659L18.7801 14.4593L18.3448 14.1451H18.8813L19.0433 13.6385L19.2052 14.1451H19.7417L19.3267 14.4593ZM19.4583 19.4246L19.023 19.1104L18.5878 19.4246L18.7497 18.9179L18.3145 18.6038H18.851L19.0129 18.0971L19.1749 18.6038H19.7114L19.2761 18.9179L19.4583 19.4246ZM17.3326 7.56863L17.4945 8.0753L17.0593 7.76116L16.624 8.0753L16.786 7.56863L16.3507 7.2545H16.8872L17.0492 6.74784L17.2111 7.2545H17.7476L17.3326 7.56863ZM17.3326 12.0273L17.4945 12.5339L17.0593 12.2198L16.624 12.5339L16.786 12.0273L16.3507 11.7131H16.8872L17.0492 11.2065L17.2111 11.7131H17.7476L17.3326 12.0273ZM17.3326 16.5974L17.4945 17.104L17.0593 16.7899L16.624 17.104L16.786 16.5974L16.3507 16.2832H16.8872L17.0492 15.7766L17.2111 16.2832H17.7476L17.3326 16.5974ZM17.4945 21.4613L17.0593 21.1472L16.624 21.4613L16.786 20.9547L16.3507 20.6406H16.8872L17.0492 20.1339L17.2111 20.6406H17.7476L17.3123 20.9547L17.4945 21.4613ZM15.3688 5.33931L15.5308 5.84598L15.0955 5.53184L14.6603 5.84598L14.8223 5.33931L14.387 5.02518H14.9235L15.0854 4.51852L15.2474 5.02518H15.7839L15.3688 5.33931ZM15.3688 9.93982L15.5308 10.4465L15.0955 10.1324L14.6603 10.4465L14.8223 9.93982L14.387 9.62569H14.9235L15.0854 9.11902L15.2474 9.62569H15.7839L15.3688 9.93982ZM15.3385 14.4593L15.5004 14.9659L15.0652 14.6518L14.6299 14.9659L14.7919 14.4593L14.3566 14.1451H14.8931L15.0551 13.6385L15.217 14.1451H15.7535L15.3385 14.4593ZM15.46 19.4246L15.0247 19.1104L14.5894 19.4246L14.7514 18.9179L14.3161 18.6038H14.8526L15.0146 18.0971L15.1765 18.6038H15.713L15.2778 18.9179L15.46 19.4246ZM13.3343 3.11L13.4962 3.61666L13.0609 3.30252L12.6257 3.61666L12.7876 3.11L12.3524 2.79586H12.8889L13.0508 2.2892L13.2128 2.79586H13.7493L13.3343 3.11ZM13.3343 7.56863L13.4962 8.0753L13.0609 7.76116L12.6257 8.0753L12.7876 7.56863L12.3524 7.2545H12.8889L13.0508 6.74784L13.2128 7.2545H13.7493L13.3343 7.56863ZM13.3343 12.0273L13.4962 12.5339L13.0609 12.2198L12.6257 12.5339L12.7876 12.0273L12.3524 11.7131H12.8889L13.0508 11.2065L13.2128 11.7131H13.7493L13.3343 12.0273ZM13.3343 16.5974L13.4962 17.104L13.0609 16.7899L12.6257 17.104L12.7876 16.5974L12.3524 16.2832H12.8889L13.0508 15.7766L13.2128 16.2832H13.7493L13.3343 16.5974ZM13.4962 21.4613L13.0609 21.1472L12.6257 21.4613L12.7876 20.9547L12.3524 20.6406H12.8889L13.0508 20.1339L13.2128 20.6406H13.7493L13.314 20.9547L13.4962 21.4613ZM11.3807 5.17718L11.5426 5.68384L11.1074 5.36971L10.6721 5.68384L10.834 5.17718L10.3988 4.86305H10.9353L11.0972 4.35639L11.2592 4.86305H11.7957L11.3807 5.17718ZM11.3807 9.77769L11.5426 10.2843L11.1074 9.97021L10.6721 10.2843L10.834 9.77769L10.3988 9.46355H10.9353L11.0972 8.95689L11.2592 9.46355H11.7957L11.3807 9.77769ZM11.3401 14.2971L11.5021 14.8038L11.0668 14.4897L10.6316 14.8038L10.7935 14.2971L10.3583 13.983H10.8948L11.0567 13.4763L11.2187 13.983H11.7552L11.3401 14.2971ZM11.4616 19.2624L11.0264 18.9483L10.5911 19.2624L10.7531 18.7558L10.3178 18.4416H10.8543L11.0162 17.935L11.1782 18.4416H11.7147L11.2794 18.7558L11.4616 19.2624ZM9.33594 7.56863L9.49788 8.0753L9.06262 7.76116L8.62737 8.0753L8.78932 7.56863L8.35405 7.2545H8.89054L9.06262 6.74784L9.22458 7.2545H9.76107L9.33594 7.56863ZM9.33594 12.0273L9.49788 12.5339L9.06262 12.2198L8.62737 12.5339L8.78932 12.0273L8.35405 11.7131H8.89054L9.06262 11.2065L9.22458 11.7131H9.76107L9.33594 12.0273ZM9.33594 16.5974L9.49788 17.104L9.06262 16.7899L8.62737 17.104L8.78932 16.5974L8.35405 16.2832H8.89054L9.06262 15.7766L9.22458 16.2832H9.76107L9.33594 16.5974ZM9.50801 21.4613L9.07275 21.1472L8.63748 21.4613L8.79945 20.9547L8.36418 20.6406H8.90067L9.07275 20.1339L9.23472 20.6406H9.77118L9.33594 20.9547L9.50801 21.4613ZM7.38232 9.73715L7.54426 10.2438L7.10902 9.92969L6.67376 10.2438L6.8357 9.73715L6.40046 9.42302H6.93692L7.09889 8.91636L7.26086 9.42302H7.79732L7.38232 9.73715ZM7.34182 14.2465L7.50378 14.7531L7.06852 14.439L6.63325 14.7531L6.79522 14.2465L6.35995 13.9323H6.89644L7.05841 13.4257L7.22035 13.9323H7.75684L7.34182 14.2465ZM7.4633 19.2219L7.02804 18.9078L6.59277 19.2219L6.75474 18.7152L6.31947 18.4011H6.85596L7.01791 17.8944L7.17987 18.4011H7.71636L7.2811 18.7152L7.4633 19.2219ZM16.8973 2.79586L17.0593 2.2892L17.2212 2.79586H17.7577L17.3225 3.11L17.4844 3.61666L17.0492 3.30252L16.6139 3.61666L16.7759 3.11L16.3406 2.79586H16.8973ZM20.8957 16.2832L21.0576 15.7766L21.2196 16.2832H21.7561L21.3208 16.5974L21.4828 17.104L21.0475 16.7899L20.6122 17.104L20.7742 16.5974L20.3389 16.2832H20.8957ZM20.8957 11.7131L21.0576 11.2065L21.2196 11.7131H21.7561L21.3208 12.0273L21.4828 12.5339L21.0475 12.2198L20.6122 12.5339L20.7742 12.0273L20.3389 11.7131H20.8957ZM20.8957 7.2545L21.0576 6.74784L21.2196 7.2545H21.7561L21.3208 7.56863L21.4828 8.0753L21.0475 7.76116L20.6122 8.0753L20.7742 7.56863L20.3389 7.2545H20.8957ZM20.8957 2.79586L21.0576 2.2892L21.2196 2.79586H21.7561L21.3208 3.11L21.4828 3.61666L21.0475 3.30252L20.6122 3.61666L20.7742 3.11L20.3389 2.79586H20.8957ZM5.34772 12.0273L5.50969 12.5339L5.07442 12.2198L4.63915 12.5339L4.80112 12.0273L4.36585 11.7131H4.90234L5.06429 11.2065L5.22625 11.7131H5.76274L5.34772 12.0273ZM5.34772 16.5974L5.50969 17.104L5.07442 16.7899L4.63915 17.104L4.80112 16.5974L4.36585 16.2832H4.90234L5.06429 15.7766L5.22625 16.2832H5.76274L5.34772 16.5974ZM5.50969 21.4613L5.07442 21.1472L4.63915 21.4613L4.80112 20.9547L4.36585 20.6406H4.90234L5.06429 20.1339L5.22625 20.6406H5.76274L5.32748 20.9547L5.50969 21.4613ZM3.34349 14.1755L3.50545 14.6822L3.07019 14.3681L2.63492 14.6822L2.79689 14.1755L2.36162 13.8614H2.89811L3.06008 13.3547L3.22202 13.8614H3.75851L3.34349 14.1755ZM3.47508 19.1408L3.03982 18.8267L2.60458 19.1408L2.76652 18.6342L2.33125 18.32H2.86774L3.02971 17.8134L3.19165 18.32H3.72814L3.29288 18.6342L3.47508 19.1408ZM1.51136 21.4613L1.07609 21.1472L0.640824 21.4613L0.802791 20.9547L0.367525 20.6406H0.904015L1.06596 20.1339L1.22793 20.6406H1.76441L1.32915 20.9547L1.51136 21.4613ZM23.0112 1.21507C22.8189 1.18467 21.3613 1.02254 21.1588 1.00227L17.5654 1.134C13.8404 1.59 10.3482 3.09986 7.47341 5.41024L7.54426 5.63318L7.36208 5.50144C6.70413 6.03851 6.07653 6.62624 5.47931 7.24437H5.77285L5.33761 7.5585L5.49955 8.06516L5.06429 7.75103L4.89221 7.87263C4.48732 8.33876 4.10266 8.82516 3.74838 9.32169H3.80913L3.68766 9.41288C3.59656 9.53448 3.51557 9.66622 3.42447 9.78782L3.53583 10.1425L3.30301 9.97021C2.08833 11.8145 1.15707 13.9019 0.600344 16.1718C0.590222 16.2022 0.590227 16.2326 0.580105 16.263H0.914123L1.07609 15.7563L1.23806 16.263H1.77452L1.33928 16.5771L1.50122 17.0838L1.06596 16.7696L0.630716 17.0838L0.792659 16.5771L0.5396 16.3947C0.0436051 18.4822 -0.0981029 20.5696 0.0638548 22.5963H22.991V1.21507H23.0112Z" fill="#24356B"/>
</svg>
