<svg width="60" height="60" viewBox="0 0 60 60" fill="none" xmlns="http://www.w3.org/2000/svg">
<rect opacity="0.3" x="60" y="60" width="60" height="60" rx="16" transform="rotate(180 60 60)" fill="#DC2626"/>
<path d="M20.0087 27H39.9912C40.2906 27.0015 40.5865 26.9358 40.8571 26.8077C41.1277 26.6796 41.3661 26.4924 41.5546 26.2599C41.7432 26.0274 41.8772 25.7556 41.9467 25.4644C42.0162 25.1732 42.0195 24.8701 41.9562 24.5775C41.0275 20.1875 36 17 30 17C24 17 18.9725 20.1875 18.0437 24.5775C17.9805 24.8701 17.9838 25.1732 18.0533 25.4644C18.1228 25.7556 18.2568 26.0274 18.4454 26.2599C18.6339 26.4924 18.8723 26.6796 19.1429 26.8077C19.4135 26.9358 19.7094 27.0015 20.0087 27ZM30 19C34.9775 19 39.2762 21.5763 39.9912 25H20.0087L20 24.9913C20.7238 21.5763 25.0225 19 30 19ZM42.6575 33.06L37.5163 34.935L32.875 33.0713C32.6367 32.976 32.3708 32.976 32.1325 33.0713L27.5075 34.9225L22.875 33.0713C22.6469 32.9801 22.3933 32.9761 22.1625 33.06L16.6625 35.06C16.43 35.1623 16.2452 35.3493 16.1456 35.5829C16.0459 35.8165 16.0389 36.0792 16.1259 36.3179C16.2129 36.5565 16.3874 36.753 16.6141 36.8676C16.8407 36.9823 17.1025 37.0063 17.3463 36.935L19 36.3363V37C19 38.3261 19.5268 39.5979 20.4645 40.5355C21.4021 41.4732 22.6739 42 24 42H36C37.3261 42 38.5979 41.4732 39.5355 40.5355C40.4732 39.5979 41 38.3261 41 37V35.7913L43.3412 34.94C43.4725 34.9016 43.5945 34.8366 43.6997 34.7492C43.8049 34.6617 43.891 34.5536 43.9528 34.4315C44.0145 34.3095 44.0505 34.176 44.0586 34.0395C44.0667 33.9029 44.0467 33.7662 43.9999 33.6377C43.953 33.5091 43.8803 33.3916 43.7862 33.2923C43.6921 33.1931 43.5786 33.1141 43.4528 33.0605C43.3269 33.0068 43.1915 32.9795 43.0547 32.9803C42.9179 32.9811 42.7827 33.0099 42.6575 33.065V33.06ZM39 37C39 37.7956 38.6839 38.5587 38.1213 39.1213C37.5587 39.6839 36.7956 40 36 40H24C23.2044 40 22.4413 39.6839 21.8787 39.1213C21.3161 38.5587 21 37.7956 21 37V35.61L22.4838 35.07L27.125 36.9287C27.3633 37.024 27.6292 37.024 27.8675 36.9287L32.4925 35.0775L37.1175 36.9287C37.3456 37.0199 37.5992 37.0239 37.83 36.94L38.9888 36.5187L39 37ZM16 30C16 29.7348 16.1054 29.4804 16.2929 29.2929C16.4804 29.1054 16.7348 29 17 29H43C43.2652 29 43.5196 29.1054 43.7071 29.2929C43.8946 29.4804 44 29.7348 44 30C44 30.2652 43.8946 30.5196 43.7071 30.7071C43.5196 30.8946 43.2652 31 43 31H17C16.7348 31 16.4804 30.8946 16.2929 30.7071C16.1054 30.5196 16 30.2652 16 30Z" fill="#DC2626"/>
</svg>
