<svg width="40" height="33" viewBox="0 0 40 33" fill="none" xmlns="http://www.w3.org/2000/svg">
<path d="M34.2427 0.857178H4.92842C3.62133 0.857178 2.36776 1.37642 1.4435 2.30068C0.519243 3.22494 0 4.4785 0 5.7856V27.2144C0 28.5215 0.519243 29.7751 1.4435 30.6993C2.36776 31.6236 3.62133 32.1428 4.92842 32.1428H34.2427C35.5498 32.1428 36.8034 31.6236 37.7276 30.6993C38.6519 29.7751 39.1711 28.5215 39.1711 27.2144V5.7856C39.1711 4.4785 38.6519 3.22494 37.7276 2.30068C36.8034 1.37642 35.5498 0.857178 34.2427 0.857178ZM37.1997 20.4329H24.5436C23.4979 20.4329 22.495 20.0175 21.7556 19.2781C21.0162 18.5387 20.6008 17.5358 20.6008 16.4901C20.6008 15.4445 21.0162 14.4416 21.7556 13.7022C22.495 12.9628 23.4979 12.5474 24.5436 12.5474H37.1997V20.4329ZM24.5436 10.576C22.975 10.576 21.4708 11.1991 20.3617 12.3082C19.2525 13.4173 18.6294 14.9216 18.6294 16.4901C18.6294 18.0587 19.2525 19.5629 20.3617 20.6721C21.4708 21.7812 22.975 22.4043 24.5436 22.4043H37.1997V27.2144C37.1997 27.9987 36.8882 28.7508 36.3336 29.3053C35.7791 29.8599 35.027 30.1714 34.2427 30.1714H4.92842C4.14417 30.1714 3.39203 29.8599 2.83747 29.3053C2.28292 28.7508 1.97137 27.9987 1.97137 27.2144V5.7856C1.97137 5.00134 2.28292 4.2492 2.83747 3.69465C3.39203 3.14009 4.14417 2.82855 4.92842 2.82855H34.2427C35.027 2.82855 35.7791 3.14009 36.3336 3.69465C36.8882 4.2492 37.1997 5.00134 37.1997 5.7856V10.576H24.5436Z" fill="white"/>
</svg>
